HIERARCHY
ROOT hip
{
  OFFSET 0 0 0
  CHANNELS 6 Xposition Yposition Zposition Zrotation Yrotation Xrotation
  JOINT abdomen
  {
    OFFSET 0 20.6881 -0.73152
    CHANNELS 3 Zrotation Xrotation Yrotation
    JOINT chest
    {
      OFFSET 0 11.7043 -0.48768
      CHANNELS 3 Zrotation Xrotation Yrotation
      JOINT neck
      {
        OFFSET 0 22.1894 -2.19456
        CHANNELS 3 Zrotation Xrotation Yrotation
        JOINT head
        {
          OFFSET -0.24384 7.07133 1.2192
          CHANNELS 3 Zrotation Xrotation Yrotation
          JOINT leftEye
          {
            OFFSET 4.14528 8.04674 8.04672
            CHANNELS 3 Zrotation Xrotation Yrotation
            End Site
            {
              OFFSET 1 0 0
            }
          }
          JOINT rightEye
          {
            OFFSET -3.6576 8.04674 8.04672
            CHANNELS 3 Zrotation Xrotation Yrotation
            End Site
            {
              OFFSET 1 0 0
            }
          }
        }
      }
      JOINT rCollar
      {
        OFFSET -2.68224 19.2634 -4.8768
        CHANNELS 3 Zrotation Xrotation Yrotation
        JOINT rShldr
        {
          OFFSET -8.77824 -1.95073 1.46304
          CHANNELS 3 Zrotation Xrotation Yrotation
          JOINT rForeArm
          {
            OFFSET -28.1742 -1.7115 0.48768
            CHANNELS 3 Zrotation Xrotation Yrotation
            JOINT rHand
            {
              OFFSET -22.5879 0.773209 7.07136
              CHANNELS 3 Zrotation Xrotation Yrotation
              JOINT rThumb1
              {
                OFFSET -1.2192 -0.487915 3.41376
                CHANNELS 3 Zrotation Xrotation Yrotation
                JOINT rThumb2
                {
                  OFFSET -3.37035 -0.52449 3.41376
                  CHANNELS 3 Zrotation Xrotation Yrotation
                  End Site
                  {
                    OFFSET -1.78271 -1.18214 1.43049
                  }
                }
              }
              JOINT rIndex1
              {
                OFFSET -7.75947 0.938293 5.60832
                CHANNELS 3 Zrotation Xrotation Yrotation
                JOINT rIndex2
                {
                  OFFSET -2.54057 -0.884171 1.56538
                  CHANNELS 3 Zrotation Xrotation Yrotation
                  End Site
                  {
                    OFFSET -1.62519 -0.234802 1.16502
                  }
                }
              }
              JOINT rMid1
              {
                OFFSET -8.24714 1.18213 3.41376
                CHANNELS 3 Zrotation Xrotation Yrotation
                JOINT rMid2
                {
                  OFFSET -3.10165 -0.590103 1.0647
                  CHANNELS 3 Zrotation Xrotation Yrotation
                  End Site
                  {
                    OFFSET -2.48547 -0.328903 0.83742
                  }
                }
              }
              JOINT rRing1
              {
                OFFSET -8.82822 0.546677 1.51678
                CHANNELS 3 Zrotation Xrotation Yrotation
                JOINT rRing2
                {
                  OFFSET -2.60934 -0.819778 -0.0198488
                  CHANNELS 3 Zrotation Xrotation Yrotation
                  End Site
                  {
                    OFFSET -2.33842 -0.294052 0.168128
                  }
                }
              }
              JOINT rPinky1
              {
                OFFSET -8.27202 -0.0477905 -0.4584
                CHANNELS 3 Zrotation Xrotation Yrotation
                JOINT rPinky2
                {
                  OFFSET -1.82734 -0.647385 -0.700984
                  CHANNELS 3 Zrotation Xrotation Yrotation
                  End Site
                  {
                    OFFSET -1.69225 -0.51767 -0.607171
                  }
                }
              }
            }
          }
        }
      }
      JOINT lCollar
      {
        OFFSET 2.68224 19.2634 -4.8768
        CHANNELS 3 Zrotation Xrotation Yrotation
        JOINT lShldr
        {
          OFFSET 8.77824 -1.95073 1.46304
          CHANNELS 3 Zrotation Xrotation Yrotation
          JOINT lForeArm
          {
            OFFSET 28.1742 -1.7115 0.48768
            CHANNELS 3 Zrotation Xrotation Yrotation
            JOINT lHand
            {
              OFFSET 22.5879 0.773209 7.07136
              CHANNELS 3 Zrotation Xrotation Yrotation
              JOINT lThumb1
              {
                OFFSET 1.2192 -0.487915 3.41376
                CHANNELS 3 Zrotation Xrotation Yrotation
                JOINT lThumb2
                {
                  OFFSET 3.37035 -0.52449 3.41376
                  CHANNELS 3 Zrotation Xrotation Yrotation
                  End Site
                  {
                    OFFSET 1.78271 -1.18214 1.43049
                  }
                }
              }
              JOINT lIndex1
              {
                OFFSET 7.75947 0.938293 5.60832
                CHANNELS 3 Zrotation Xrotation Yrotation
                JOINT lIndex2
                {
                  OFFSET 2.54057 -0.884171 1.56538
                  CHANNELS 3 Zrotation Xrotation Yrotation
                  End Site
                  {
                    OFFSET 1.62519 -0.234802 1.16502
                  }
                }
              }
              JOINT lMid1
              {
                OFFSET 8.24714 1.18213 3.41376
                CHANNELS 3 Zrotation Xrotation Yrotation
                JOINT lMid2
                {
                  OFFSET 3.10165 -0.590103 1.0647
                  CHANNELS 3 Zrotation Xrotation Yrotation
                  End Site
                  {
                    OFFSET 2.48547 -0.328903 0.83742
                  }
                }
              }
              JOINT lRing1
              {
                OFFSET 8.82822 0.546677 1.51678
                CHANNELS 3 Zrotation Xrotation Yrotation
                JOINT lRing2
                {
                  OFFSET 2.60934 -0.819778 -0.0198488
                  CHANNELS 3 Zrotation Xrotation Yrotation
                  End Site
                  {
                    OFFSET 2.33842 -0.294052 0.168128
                  }
                }
              }
              JOINT lPinky1
              {
                OFFSET 8.27202 -0.0477905 -0.4584
                CHANNELS 3 Zrotation Xrotation Yrotation
                JOINT lPinky2
                {
                  OFFSET 1.82734 -0.647385 -0.700984
                  CHANNELS 3 Zrotation Xrotation Yrotation
                  End Site
                  {
                    OFFSET 1.69225 -0.51767 -0.607171
                  }
                }
              }
            }
          }
        }
      }
    }
  }
  JOINT rButtock
  {
    OFFSET -8.77824 4.35084 1.2192
    CHANNELS 3 Zrotation Xrotation Yrotation
    JOINT rThigh
    {
      OFFSET 0 -1.70687 -2.19456
      CHANNELS 3 Zrotation Xrotation Yrotation
      JOINT rShin
      {
        OFFSET 0 -36.8199 0.73152
        CHANNELS 3 Zrotation Xrotation Yrotation
        JOINT rFoot
        {
          OFFSET 0.73152 -45.1104 -5.12064
          CHANNELS 3 Zrotation Xrotation Yrotation
          End Site
          {
            OFFSET -1.1221 -3.69964 12.103
          }
        }
      }
    }
  }
  JOINT lButtock
  {
    OFFSET 8.77824 4.35084 1.2192
    CHANNELS 3 Zrotation Xrotation Yrotation
    JOINT lThigh
    {
      OFFSET 0 -1.70687 -2.19456
      CHANNELS 3 Zrotation Xrotation Yrotation
      JOINT lShin
      {
        OFFSET 0 -36.8199 0.73152
        CHANNELS 3 Zrotation Xrotation Yrotation
        JOINT lFoot
        {
          OFFSET -0.73152 -45.1104 -5.12064
          CHANNELS 3 Zrotation Xrotation Yrotation
          End Site
          {
            OFFSET 1.1221 -3.69964 12.103
          }
        }
      }
    }
  }
}
MOTION
Frames:	4
Frame Time:	0.03333
15.620600000000001 41.5551 -16.118 -70.830725 82.875656 -64.505738 1.765575 13.914628 2.286876 -2.866378 -14.011085 17.03233 -9.481023 25.986171 -84.18022 31.685694 12.467873 122.634831 -3.359354 0.349564 -11.877927 -24.00778 -1.531548 7.193924 1.931405 2.989525 3.182717 78.94966 -43.34589 29.11243 -64.857612 -79.776629 143.254037 154.568482 -36.504369 136.907852 129.682307 -46.372429 72.674014 -143.370936 27.059398 79.567985 178.428971 -78.629097 131.999311 11.13946 74.712359 -1.844217 -175.006155 -22.803751 145.933854 -3.381404 -3.218312 -0.761999 -36.300771 45.535448 31.720549 -147.142798 -69.32371 175.497143 -43.049895 -44.479469 -33.558723 7.694926 11.544469 -19.288314 0.794207 -1.091221 3.73337 -65.555315 -21.734155 -15.20643 1.464594 -8.55448 -110.946078 9.174071 -10.317266 4.833013 -1.020534 -8.297907 4.975127 112.591738 -70.324336 -151.137279 -12.254683 -25.01896 1.662144 54.662735 51.92973 -55.938746 2.409858 6.837776 -4.35405 8.775716 53.14239 -10.074557 138.627007 42.784095 -148.077728 -59.916921 -74.290077 -48.375678 -0.033685 -13.498616 11.637838 107.173367 69.986394 -140.987175 139.85226 77.89987 29.348565 138.988276 17.17756 44.228656 115.335948 57.212383 169.966514 85.089822 51.151512 25.348976 -34.908423 5.642035 -20.446319 131.254508 -33.211993 -111.459046 172.577191 -68.479668 -110.041571 175.871555 -6.456214 -107.243033
15.5005 41.188 -16.4581 -72.24285 82.907266 -65.927457 1.595724 9.15331 173.834856 0.961888 9.492883 -154.4786 -4.909304 16.480184 -24.041869 18.801394 -13.878779 66.700333 -4.170203 0.422727 -11.571396 -24.354378 -1.723874 7.976326 2.328927 2.271797 3.083096 52.420414 7.091853 23.14379 19.154748 43.664333 104.932706 -10.344216 47.068362 2.819974 2.542007 -12.137011 -2.63102 -103.614093 30.588747 96.103648 5.306388 -37.639731 -19.465299 -46.741432 44.059742 70.370498 -3.946148 -16.610408 -3.503424 78.562132 -80.580937 45.149793 -18.773573 -2.2059 7.748746 -119.930588 -61.845608 -155.373427 1.257159 33.721594 9.409161 -133.644906 53.230453 -152.26136 -0.306397 -28.308114 9.820122 -58.052487 19.191141 4.420158 175.441528 31.479287 -33.333962 171.564651 0.555445 -141.142284 173.485554 -3.901805 -93.880207 125.963925 19.70929 -42.003148 10.498529 8.663567 -7.423303 -8.025293 14.926444 -10.704916 0.206425 2.149524 -2.510734 165.080195 -51.287285 -152.594683 158.551268 -12.419815 -173.17895 178.722648 -40.520478 -176.992278 -16.539013 19.761214 0.178244 55.748611 -61.592095 35.539811 -170.364817 79.707374 -12.196867 127.375681 11.068053 73.839776 110.188926 33.766364 157.274868 174.548882 -33.952821 -100.216511 140.010551 73.553055 24.130937 -135.522483 -30.568129 119.144302 127.938778 -55.920856 12.514693 -49.482026 35.56666 -59.728172
15.3029 40.776 -16.6708 -76.378426 82.830856 -69.856293 0.21063 12.857683 52.586203 -10.640407 -7.558575 -34.00759 11.519174 27.560905 116.842093 -26.482442 18.677044 -74.517303 -4.567318 0.571677 -14.261512 -23.090608 -1.429063 6.98744 -146.898882 18.548724 153.527457 -34.138248 -34.176419 6.240836 -102.665257 67.119137 -43.577347 144.775916 -48.743499 127.984022 9.428637 -18.117005 -0.690939 -132.68245 -16.161658 133.26224 8.250012 -49.804488 -21.191243 -31.153025 53.159201 58.168077 0.293292 -28.836682 -4.142682 -172.012506 -38.800708 145.815893 -34.545081 -72.755866 -29.355954 42.529907 74.217279 -35.959605 -26.142107 -31.159184 -15.388483 46.771769 41.208317 -23.121056 125.359086 -80.235803 147.435485 -62.481168 43.083741 56.525343 4.72493 -6.314335 -110.796896 8.481263 -13.235599 5.447845 5.92902 -2.002244 4.255507 118.388784 -70.221072 -138.913705 -178.372644 -51.955842 -114.465764 18.999606 55.554439 -1.336824 160.672278 -9.373275 -141.71212 45.656118 48.779359 -35.446372 19.386582 -72.995089 21.053461 -37.960293 54.07474 35.241192 28.598976 -39.515973 37.02877 136.699428 -26.467701 152.529314 131.303268 76.680803 35.605221 142.40694 15.477598 -141.196425 -127.860095 -55.801843 -56.777399 -177.639281 4.499022 -97.711439 -12.811497 0.422747 -2.945884 115.971299 -49.042297 96.618084 128.720641 57.55015 -48.11022 -179.911379 -17.992868 79.191106
15.0719 40.399 -16.859099999999998 -79.154218 82.839487 -72.483165 2.537506 13.962663 -8.385666 -0.69938 -14.259751 26.84683 10.76586 20.961682 80.160505 -25.242603 0.404403 -41.336729 -5.207214 0.740312 -16.172303 -21.599773 -1.774374 9.282082 -161.615498 -76.769967 170.434712 61.651329 45.11114 -55.279692 -24.205194 65.203356 139.948636 -0.124845 19.225199 0.343356 -101.059405 38.081925 52.303277 14.289274 -8.816629 31.657838 -22.056725 30.009945 2.459293 9.767462 -8.911296 31.683453 -133.99277 51.148436 114.918504 -11.195018 31.00141 9.578309 -17.645044 -15.001489 4.234678 28.225511 38.708898 -12.454658 -48.075546 -45.629862 -35.87793 166.438405 47.839185 -109.541229 157.085556 -13.233472 -167.55169 -151.611005 1.968833 166.875496 176.609793 52.313164 -33.820559 170.882439 1.081747 -140.987537 157.212839 15.321714 -89.176282 168.776656 2.550209 -65.396473 12.864592 11.35936 -8.394869 160.998319 -24.0959 -100.597028 10.542865 24.482398 -9.25973 -10.452329 8.372265 2.821531 8.497501 -23.328761 -4.305673 -45.052245 56.442145 19.053899 -10.173719 7.204584 3.686246 9.859186 12.953728 -19.647412 -153.919112 77.731601 -25.529046 125.290588 5.525029 -116.509684 -104.079428 -35.037756 120.167128 12.885834 -50.256952 -39.359879 10.585677 2.343796 15.495783 104.608294 -65.480261 9.189485 -116.259078 13.332684 -145.838272 127.894435 65.231922 123.536218
